<?xml version="1.0" encoding="UTF-8"?>
<svg width="274px" height="260px" viewBox="0 0 274 260" version="1.1" xmlns="http://www.w3.org/2000/svg" xmlns:xlink="http://www.w3.org/1999/xlink">
    <!-- Generator: sketchtool 63.1 (101010) - https://sketch.com -->
    <title>422D9374-7073-481C-8A8E-0D3D8402ADC0</title>
    <desc>Created with sketchtool.</desc>
    <g id="Asset-Artboard-Page" stroke="none" stroke-width="1" fill="none" fill-rule="evenodd" opacity="0.5">
        <g id="Oval" transform="translate(0.130435, 0.000000)" fill="#1B89D6">
            <circle cx="4" cy="4" r="4"></circle>
            <circle id="Oval-Copy-15" cx="22" cy="4" r="4"></circle>
            <circle id="Oval-Copy" cx="4" cy="22" r="4"></circle>
            <circle id="Oval-Copy-16" cx="22" cy="22" r="4"></circle>
            <circle id="Oval-Copy-2" cx="4" cy="40" r="4"></circle>
            <circle id="Oval-Copy-17" cx="22" cy="40" r="4"></circle>
            <circle id="Oval-Copy-3" cx="4" cy="58" r="4"></circle>
            <circle id="Oval-Copy-18" cx="22" cy="58" r="4"></circle>
            <circle id="Oval-Copy-4" cx="4" cy="76" r="4"></circle>
            <circle id="Oval-Copy-19" cx="22" cy="76" r="4"></circle>
            <circle id="Oval-Copy-5" cx="4" cy="94" r="4"></circle>
            <circle id="Oval-Copy-20" cx="22" cy="94" r="4"></circle>
            <circle id="Oval-Copy-6" cx="4" cy="112" r="4"></circle>
            <circle id="Oval-Copy-21" cx="22" cy="112" r="4"></circle>
            <circle id="Oval-Copy-7" cx="4" cy="130" r="4"></circle>
            <circle id="Oval-Copy-22" cx="22" cy="130" r="4"></circle>
            <circle id="Oval-Copy-8" cx="4" cy="148" r="4"></circle>
            <circle id="Oval-Copy-23" cx="22" cy="148" r="4"></circle>
            <circle id="Oval-Copy-9" cx="4" cy="166" r="4"></circle>
            <circle id="Oval-Copy-24" cx="22" cy="166" r="4"></circle>
            <circle id="Oval-Copy-10" cx="4" cy="184" r="4"></circle>
            <circle id="Oval-Copy-25" cx="22" cy="184" r="4"></circle>
            <circle id="Oval-Copy-11" cx="4" cy="202" r="4"></circle>
            <circle id="Oval-Copy-26" cx="22" cy="202" r="4"></circle>
            <circle id="Oval-Copy-12" cx="4" cy="220" r="4"></circle>
            <circle id="Oval-Copy-27" cx="22" cy="220" r="4"></circle>
            <circle id="Oval-Copy-13" cx="4" cy="238" r="4"></circle>
            <circle id="Oval-Copy-28" cx="22" cy="238" r="4"></circle>
            <circle id="Oval-Copy-14" cx="4" cy="256" r="4"></circle>
            <circle id="Oval-Copy-29" cx="22" cy="256" r="4"></circle>
            <circle id="Oval-Copy-44" cx="41" cy="4" r="4"></circle>
            <circle id="Oval-Copy-43" cx="41" cy="22" r="4"></circle>
            <circle id="Oval-Copy-42" cx="41" cy="40" r="4"></circle>
            <circle id="Oval-Copy-41" cx="41" cy="58" r="4"></circle>
            <circle id="Oval-Copy-40" cx="41" cy="76" r="4"></circle>
            <circle id="Oval-Copy-39" cx="41" cy="94" r="4"></circle>
            <circle id="Oval-Copy-38" cx="41" cy="112" r="4"></circle>
            <circle id="Oval-Copy-37" cx="41" cy="130" r="4"></circle>
            <circle id="Oval-Copy-36" cx="41" cy="148" r="4"></circle>
            <circle id="Oval-Copy-35" cx="41" cy="166" r="4"></circle>
            <circle id="Oval-Copy-34" cx="41" cy="184" r="4"></circle>
            <circle id="Oval-Copy-33" cx="41" cy="202" r="4"></circle>
            <circle id="Oval-Copy-32" cx="41" cy="220" r="4"></circle>
            <circle id="Oval-Copy-31" cx="41" cy="238" r="4"></circle>
            <circle id="Oval-Copy-30" cx="41" cy="256" r="4"></circle>
            <circle id="Oval-Copy-59" cx="60" cy="4" r="4"></circle>
            <circle id="Oval-Copy-58" cx="60" cy="22" r="4"></circle>
            <circle id="Oval-Copy-57" cx="60" cy="40" r="4"></circle>
            <circle id="Oval-Copy-56" cx="60" cy="58" r="4"></circle>
            <circle id="Oval-Copy-55" cx="60" cy="76" r="4"></circle>
            <circle id="Oval-Copy-54" cx="60" cy="94" r="4"></circle>
            <circle id="Oval-Copy-53" cx="60" cy="112" r="4"></circle>
            <circle id="Oval-Copy-52" cx="60" cy="130" r="4"></circle>
            <circle id="Oval-Copy-51" cx="60" cy="148" r="4"></circle>
            <circle id="Oval-Copy-50" cx="60" cy="166" r="4"></circle>
            <circle id="Oval-Copy-49" cx="60" cy="184" r="4"></circle>
            <circle id="Oval-Copy-48" cx="60" cy="202" r="4"></circle>
            <circle id="Oval-Copy-47" cx="60" cy="220" r="4"></circle>
            <circle id="Oval-Copy-46" cx="60" cy="238" r="4"></circle>
            <circle id="Oval-Copy-45" cx="60" cy="256" r="4"></circle>
            <circle id="Oval-Copy-74" cx="79" cy="4" r="4"></circle>
            <circle id="Oval-Copy-73" cx="79" cy="22" r="4"></circle>
            <circle id="Oval-Copy-72" cx="79" cy="40" r="4"></circle>
            <circle id="Oval-Copy-71" cx="79" cy="58" r="4"></circle>
            <circle id="Oval-Copy-70" cx="79" cy="76" r="4"></circle>
            <circle id="Oval-Copy-69" cx="79" cy="94" r="4"></circle>
            <circle id="Oval-Copy-68" cx="79" cy="112" r="4"></circle>
            <circle id="Oval-Copy-67" cx="79" cy="130" r="4"></circle>
            <circle id="Oval-Copy-66" cx="79" cy="148" r="4"></circle>
            <circle id="Oval-Copy-65" cx="79" cy="166" r="4"></circle>
            <circle id="Oval-Copy-64" cx="79" cy="184" r="4"></circle>
            <circle id="Oval-Copy-63" cx="79" cy="202" r="4"></circle>
            <circle id="Oval-Copy-62" cx="79" cy="220" r="4"></circle>
            <circle id="Oval-Copy-61" cx="79" cy="238" r="4"></circle>
            <circle id="Oval-Copy-60" cx="79" cy="256" r="4"></circle>
            <circle id="Oval-Copy-89" cx="98" cy="4" r="4"></circle>
            <circle id="Oval-Copy-88" cx="98" cy="22" r="4"></circle>
            <circle id="Oval-Copy-87" cx="98" cy="40" r="4"></circle>
            <circle id="Oval-Copy-86" cx="98" cy="58" r="4"></circle>
            <circle id="Oval-Copy-85" cx="98" cy="76" r="4"></circle>
            <circle id="Oval-Copy-84" cx="98" cy="94" r="4"></circle>
            <circle id="Oval-Copy-83" cx="98" cy="112" r="4"></circle>
            <circle id="Oval-Copy-82" cx="98" cy="130" r="4"></circle>
            <circle id="Oval-Copy-81" cx="98" cy="148" r="4"></circle>
            <circle id="Oval-Copy-80" cx="98" cy="166" r="4"></circle>
            <circle id="Oval-Copy-79" cx="98" cy="184" r="4"></circle>
            <circle id="Oval-Copy-78" cx="98" cy="202" r="4"></circle>
            <circle id="Oval-Copy-77" cx="98" cy="220" r="4"></circle>
            <circle id="Oval-Copy-76" cx="98" cy="238" r="4"></circle>
            <circle id="Oval-Copy-75" cx="98" cy="256" r="4"></circle>
            <circle id="Oval-Copy-104" cx="117" cy="4" r="4"></circle>
            <circle id="Oval-Copy-103" cx="117" cy="22" r="4"></circle>
            <circle id="Oval-Copy-102" cx="117" cy="40" r="4"></circle>
            <circle id="Oval-Copy-101" cx="117" cy="58" r="4"></circle>
            <circle id="Oval-Copy-100" cx="117" cy="76" r="4"></circle>
            <circle id="Oval-Copy-99" cx="117" cy="94" r="4"></circle>
            <circle id="Oval-Copy-98" cx="117" cy="112" r="4"></circle>
            <circle id="Oval-Copy-97" cx="117" cy="130" r="4"></circle>
            <circle id="Oval-Copy-96" cx="117" cy="148" r="4"></circle>
            <circle id="Oval-Copy-95" cx="117" cy="166" r="4"></circle>
            <circle id="Oval-Copy-94" cx="117" cy="184" r="4"></circle>
            <circle id="Oval-Copy-93" cx="117" cy="202" r="4"></circle>
            <circle id="Oval-Copy-92" cx="117" cy="220" r="4"></circle>
            <circle id="Oval-Copy-91" cx="117" cy="238" r="4"></circle>
            <circle id="Oval-Copy-90" cx="117" cy="256" r="4"></circle>
            <circle id="Oval-Copy-119" cx="136" cy="4" r="4"></circle>
            <circle id="Oval-Copy-118" cx="136" cy="22" r="4"></circle>
            <circle id="Oval-Copy-117" cx="136" cy="40" r="4"></circle>
            <circle id="Oval-Copy-116" cx="136" cy="58" r="4"></circle>
            <circle id="Oval-Copy-115" cx="136" cy="76" r="4"></circle>
            <circle id="Oval-Copy-114" cx="136" cy="94" r="4"></circle>
            <circle id="Oval-Copy-113" cx="136" cy="112" r="4"></circle>
            <circle id="Oval-Copy-112" cx="136" cy="130" r="4"></circle>
            <circle id="Oval-Copy-111" cx="136" cy="148" r="4"></circle>
            <circle id="Oval-Copy-110" cx="136" cy="166" r="4"></circle>
            <circle id="Oval-Copy-109" cx="136" cy="184" r="4"></circle>
            <circle id="Oval-Copy-108" cx="136" cy="202" r="4"></circle>
            <circle id="Oval-Copy-107" cx="136" cy="220" r="4"></circle>
            <circle id="Oval-Copy-106" cx="136" cy="238" r="4"></circle>
            <circle id="Oval-Copy-105" cx="136" cy="256" r="4"></circle>
            <circle id="Oval-Copy-134" cx="155" cy="4" r="4"></circle>
            <circle id="Oval-Copy-133" cx="155" cy="22" r="4"></circle>
            <circle id="Oval-Copy-132" cx="155" cy="40" r="4"></circle>
            <circle id="Oval-Copy-131" cx="155" cy="58" r="4"></circle>
            <circle id="Oval-Copy-130" cx="155" cy="76" r="4"></circle>
            <circle id="Oval-Copy-129" cx="155" cy="94" r="4"></circle>
            <circle id="Oval-Copy-128" cx="155" cy="112" r="4"></circle>
            <circle id="Oval-Copy-127" cx="155" cy="130" r="4"></circle>
            <circle id="Oval-Copy-126" cx="155" cy="148" r="4"></circle>
            <circle id="Oval-Copy-125" cx="155" cy="166" r="4"></circle>
            <circle id="Oval-Copy-124" cx="155" cy="184" r="4"></circle>
            <circle id="Oval-Copy-123" cx="155" cy="202" r="4"></circle>
            <circle id="Oval-Copy-122" cx="155" cy="220" r="4"></circle>
            <circle id="Oval-Copy-121" cx="155" cy="238" r="4"></circle>
            <circle id="Oval-Copy-120" cx="155" cy="256" r="4"></circle>
            <circle id="Oval-Copy-149" cx="174" cy="4" r="4"></circle>
            <circle id="Oval-Copy-148" cx="174" cy="22" r="4"></circle>
            <circle id="Oval-Copy-147" cx="174" cy="40" r="4"></circle>
            <circle id="Oval-Copy-146" cx="174" cy="58" r="4"></circle>
            <circle id="Oval-Copy-145" cx="174" cy="76" r="4"></circle>
            <circle id="Oval-Copy-144" cx="174" cy="94" r="4"></circle>
            <circle id="Oval-Copy-143" cx="174" cy="112" r="4"></circle>
            <circle id="Oval-Copy-142" cx="174" cy="130" r="4"></circle>
            <circle id="Oval-Copy-141" cx="174" cy="148" r="4"></circle>
            <circle id="Oval-Copy-140" cx="174" cy="166" r="4"></circle>
            <circle id="Oval-Copy-139" cx="174" cy="184" r="4"></circle>
            <circle id="Oval-Copy-138" cx="174" cy="202" r="4"></circle>
            <circle id="Oval-Copy-137" cx="174" cy="220" r="4"></circle>
            <circle id="Oval-Copy-136" cx="174" cy="238" r="4"></circle>
            <circle id="Oval-Copy-135" cx="174" cy="256" r="4"></circle>
            <circle id="Oval-Copy-164" cx="193" cy="4" r="4"></circle>
            <circle id="Oval-Copy-163" cx="193" cy="22" r="4"></circle>
            <circle id="Oval-Copy-162" cx="193" cy="40" r="4"></circle>
            <circle id="Oval-Copy-161" cx="193" cy="58" r="4"></circle>
            <circle id="Oval-Copy-160" cx="193" cy="76" r="4"></circle>
            <circle id="Oval-Copy-159" cx="193" cy="94" r="4"></circle>
            <circle id="Oval-Copy-158" cx="193" cy="112" r="4"></circle>
            <circle id="Oval-Copy-157" cx="193" cy="130" r="4"></circle>
            <circle id="Oval-Copy-156" cx="193" cy="148" r="4"></circle>
            <circle id="Oval-Copy-155" cx="193" cy="166" r="4"></circle>
            <circle id="Oval-Copy-154" cx="193" cy="184" r="4"></circle>
            <circle id="Oval-Copy-153" cx="193" cy="202" r="4"></circle>
            <circle id="Oval-Copy-152" cx="193" cy="220" r="4"></circle>
            <circle id="Oval-Copy-151" cx="193" cy="238" r="4"></circle>
            <circle id="Oval-Copy-150" cx="193" cy="256" r="4"></circle>
            <circle id="Oval-Copy-179" cx="212" cy="4" r="4"></circle>
            <circle id="Oval-Copy-178" cx="212" cy="22" r="4"></circle>
            <circle id="Oval-Copy-177" cx="212" cy="40" r="4"></circle>
            <circle id="Oval-Copy-176" cx="212" cy="58" r="4"></circle>
            <circle id="Oval-Copy-175" cx="212" cy="76" r="4"></circle>
            <circle id="Oval-Copy-174" cx="212" cy="94" r="4"></circle>
            <circle id="Oval-Copy-173" cx="212" cy="112" r="4"></circle>
            <circle id="Oval-Copy-172" cx="212" cy="130" r="4"></circle>
            <circle id="Oval-Copy-171" cx="212" cy="148" r="4"></circle>
            <circle id="Oval-Copy-170" cx="212" cy="166" r="4"></circle>
            <circle id="Oval-Copy-169" cx="212" cy="184" r="4"></circle>
            <circle id="Oval-Copy-168" cx="212" cy="202" r="4"></circle>
            <circle id="Oval-Copy-167" cx="212" cy="220" r="4"></circle>
            <circle id="Oval-Copy-166" cx="212" cy="238" r="4"></circle>
            <circle id="Oval-Copy-165" cx="212" cy="256" r="4"></circle>
            <circle id="Oval-Copy-194" cx="231" cy="4" r="4"></circle>
            <circle id="Oval-Copy-193" cx="231" cy="22" r="4"></circle>
            <circle id="Oval-Copy-192" cx="231" cy="40" r="4"></circle>
            <circle id="Oval-Copy-191" cx="231" cy="58" r="4"></circle>
            <circle id="Oval-Copy-190" cx="231" cy="76" r="4"></circle>
            <circle id="Oval-Copy-189" cx="231" cy="94" r="4"></circle>
            <circle id="Oval-Copy-188" cx="231" cy="112" r="4"></circle>
            <circle id="Oval-Copy-187" cx="231" cy="130" r="4"></circle>
            <circle id="Oval-Copy-186" cx="231" cy="148" r="4"></circle>
            <circle id="Oval-Copy-185" cx="231" cy="166" r="4"></circle>
            <circle id="Oval-Copy-184" cx="231" cy="184" r="4"></circle>
            <circle id="Oval-Copy-183" cx="231" cy="202" r="4"></circle>
            <circle id="Oval-Copy-182" cx="231" cy="220" r="4"></circle>
            <circle id="Oval-Copy-181" cx="231" cy="238" r="4"></circle>
            <circle id="Oval-Copy-180" cx="231" cy="256" r="4"></circle>
            <circle id="Oval-Copy-209" cx="250" cy="4" r="4"></circle>
            <circle id="Oval-Copy-208" cx="250" cy="22" r="4"></circle>
            <circle id="Oval-Copy-207" cx="250" cy="40" r="4"></circle>
            <circle id="Oval-Copy-206" cx="250" cy="58" r="4"></circle>
            <circle id="Oval-Copy-205" cx="250" cy="76" r="4"></circle>
            <circle id="Oval-Copy-204" cx="250" cy="94" r="4"></circle>
            <circle id="Oval-Copy-203" cx="250" cy="112" r="4"></circle>
            <circle id="Oval-Copy-202" cx="250" cy="130" r="4"></circle>
            <circle id="Oval-Copy-201" cx="250" cy="148" r="4"></circle>
            <circle id="Oval-Copy-200" cx="250" cy="166" r="4"></circle>
            <circle id="Oval-Copy-199" cx="250" cy="184" r="4"></circle>
            <circle id="Oval-Copy-198" cx="250" cy="202" r="4"></circle>
            <circle id="Oval-Copy-197" cx="250" cy="220" r="4"></circle>
            <circle id="Oval-Copy-196" cx="250" cy="238" r="4"></circle>
            <circle id="Oval-Copy-195" cx="250" cy="256" r="4"></circle>
            <circle id="Oval-Copy-224" cx="269" cy="4" r="4"></circle>
            <circle id="Oval-Copy-223" cx="269" cy="22" r="4"></circle>
            <circle id="Oval-Copy-222" cx="269" cy="40" r="4"></circle>
            <circle id="Oval-Copy-221" cx="269" cy="58" r="4"></circle>
            <circle id="Oval-Copy-220" cx="269" cy="76" r="4"></circle>
            <circle id="Oval-Copy-219" cx="269" cy="94" r="4"></circle>
            <circle id="Oval-Copy-218" cx="269" cy="112" r="4"></circle>
            <circle id="Oval-Copy-217" cx="269" cy="130" r="4"></circle>
            <circle id="Oval-Copy-216" cx="269" cy="148" r="4"></circle>
            <circle id="Oval-Copy-215" cx="269" cy="166" r="4"></circle>
            <circle id="Oval-Copy-214" cx="269" cy="184" r="4"></circle>
            <circle id="Oval-Copy-213" cx="269" cy="202" r="4"></circle>
            <circle id="Oval-Copy-212" cx="269" cy="220" r="4"></circle>
            <circle id="Oval-Copy-211" cx="269" cy="238" r="4"></circle>
            <circle id="Oval-Copy-210" cx="269" cy="256" r="4"></circle>
        </g>
    </g>
</svg>