<?xml version="1.0" encoding="UTF-8"?>
<svg width="34px" height="27px" viewBox="0 0 34 27" version="1.1" xmlns="http://www.w3.org/2000/svg" xmlns:xlink="http://www.w3.org/1999/xlink">
    <!-- Generator: sketchtool 63.1 (101010) - https://sketch.com -->
    <title>40F5B9A1-B334-401F-B96F-921B82637B12</title>
    <desc>Created with sketchtool.</desc>
    <g id="Page-1" stroke="none" stroke-width="1" fill="none" fill-rule="evenodd" opacity="0.200000003">
        <g id="Hamama-A02-|-desktop" transform="translate(-943.000000, -3998.000000)" fill="#888888" fill-rule="nonzero">
            <g id="Group-20" transform="translate(0.000000, 3844.000000)">
                <g id="Group-19" transform="translate(527.000000, 154.000000)">
                    <path d="M447.03289,27 L448.861814,15.5163528 L443.920371,14.7380243 L444.109855,13.548277 C444.554728,10.7549575 445.21652,8.55257545 446.095231,6.94113104 C446.973942,5.32968662 448.072318,4.29193707 449.390359,3.82788238 L450,2.8912428e-12 C446.429691,0.321402123 443.553295,1.86564407 441.370813,4.63272584 C439.188331,7.39980761 437.682424,11.3869982 436.853092,16.5942977 L435.485519,25.181169 L447.03289,27 Z M427.547372,27 L429.376296,15.5163528 L424.434853,14.7380243 L424.624336,13.548277 C425.069209,10.7549575 425.731002,8.55257545 426.609713,6.94113104 C427.488423,5.32968662 428.586799,4.29193707 429.90484,3.82788238 L430.514481,2.89146485e-12 C426.944172,0.321402123 424.067777,1.86564407 421.885295,4.63272584 C419.702813,7.39980761 418.196906,11.3869982 417.367574,16.5942977 L416,25.181169 L427.547372,27 Z" id="“"></path>
                </g>
            </g>
        </g>
    </g>
</svg>